<?xml version="1.0" encoding="UTF-8"?>
<?xml-stylesheet href="https://cdnjs.cloudflare.com/ajax/libs/font-awesome/6.6.0/css/all.min.css" type="text/css"?>
<svg aria-roledescription="er" role="graphics-document document" viewBox="0 0 1502.6533203125 465" style="max-width: 100%;" xmlns="http://www.w3.org/2000/svg" width="100%" id="graph-div" height="100%" xmlns:xlink="http://www.w3.org/1999/xlink"><style>#graph-div{font-family:"trebuchet ms",verdana,arial,sans-serif;font-size:16px;fill:#333;}#graph-div .error-icon{fill:#552222;}#graph-div .error-text{fill:#552222;stroke:#552222;}#graph-div .edge-thickness-normal{stroke-width:1px;}#graph-div .edge-thickness-thick{stroke-width:3.5px;}#graph-div .edge-pattern-solid{stroke-dasharray:0;}#graph-div .edge-thickness-invisible{stroke-width:0;fill:none;}#graph-div .edge-pattern-dashed{stroke-dasharray:3;}#graph-div .edge-pattern-dotted{stroke-dasharray:2;}#graph-div .marker{fill:#333333;stroke:#333333;}#graph-div .marker.cross{stroke:#333333;}#graph-div svg{font-family:"trebuchet ms",verdana,arial,sans-serif;font-size:16px;}#graph-div p{margin:0;}#graph-div .entityBox{fill:#ECECFF;stroke:#9370DB;}#graph-div .attributeBoxOdd{fill:#ffffff;stroke:#9370DB;}#graph-div .attributeBoxEven{fill:#f2f2f2;stroke:#9370DB;}#graph-div .relationshipLabelBox{fill:hsl(80, 100%, 96.2745098039%);opacity:0.7;background-color:hsl(80, 100%, 96.2745098039%);}#graph-div .relationshipLabelBox rect{opacity:0.5;}#graph-div .relationshipLine{stroke:#333333;}#graph-div .entityTitleText{text-anchor:middle;font-size:18px;fill:#333;}#graph-div #MD_PARENT_START{fill:#f5f5f5!important;stroke:#333333!important;stroke-width:1;}#graph-div #MD_PARENT_END{fill:#f5f5f5!important;stroke:#333333!important;stroke-width:1;}#graph-div :root{--mermaid-font-family:"trebuchet ms",verdana,arial,sans-serif;}</style><g></g><defs><marker orient="auto" markerHeight="240" markerWidth="190" refY="7" refX="0" id="MD_PARENT_START"><path d="M 18,7 L9,13 L1,7 L9,1 Z"></path></marker></defs><defs><marker orient="auto" markerHeight="28" markerWidth="20" refY="7" refX="19" id="MD_PARENT_END"><path d="M 18,7 L9,13 L1,7 L9,1 Z"></path></marker></defs><defs><marker orient="auto" markerHeight="18" markerWidth="18" refY="9" refX="0" id="ONLY_ONE_START"><path d="M9,0 L9,18 M15,0 L15,18" fill="none" stroke="gray"></path></marker></defs><defs><marker orient="auto" markerHeight="18" markerWidth="18" refY="9" refX="18" id="ONLY_ONE_END"><path d="M3,0 L3,18 M9,0 L9,18" fill="none" stroke="gray"></path></marker></defs><defs><marker orient="auto" markerHeight="18" markerWidth="30" refY="9" refX="0" id="ZERO_OR_ONE_START"><circle r="6" cy="9" cx="21" fill="white" stroke="gray"></circle><path d="M9,0 L9,18" fill="none" stroke="gray"></path></marker></defs><defs><marker orient="auto" markerHeight="18" markerWidth="30" refY="9" refX="30" id="ZERO_OR_ONE_END"><circle r="6" cy="9" cx="9" fill="white" stroke="gray"></circle><path d="M21,0 L21,18" fill="none" stroke="gray"></path></marker></defs><defs><marker orient="auto" markerHeight="36" markerWidth="45" refY="18" refX="18" id="ONE_OR_MORE_START"><path d="M0,18 Q 18,0 36,18 Q 18,36 0,18 M42,9 L42,27" fill="none" stroke="gray"></path></marker></defs><defs><marker orient="auto" markerHeight="36" markerWidth="45" refY="18" refX="27" id="ONE_OR_MORE_END"><path d="M3,9 L3,27 M9,18 Q27,0 45,18 Q27,36 9,18" fill="none" stroke="gray"></path></marker></defs><defs><marker orient="auto" markerHeight="36" markerWidth="57" refY="18" refX="18" id="ZERO_OR_MORE_START"><circle r="6" cy="18" cx="48" fill="white" stroke="gray"></circle><path d="M0,18 Q18,0 36,18 Q18,36 0,18" fill="none" stroke="gray"></path></marker></defs><defs><marker orient="auto" markerHeight="36" markerWidth="57" refY="18" refX="39" id="ZERO_OR_MORE_END"><circle r="6" cy="18" cx="9" fill="white" stroke="gray"></circle><path d="M21,18 Q39,0 57,18 Q39,36 21,18" fill="none" stroke="gray"></path></marker></defs><path style="stroke: gray; fill: none;" marker-start="url(#ONLY_ONE_START)" marker-end="url(#ONLY_ONE_END)" d="M584.064,95L573.949,103.333C563.833,111.667,543.602,128.333,508.536,147.589C473.47,166.845,423.568,188.689,398.618,199.611L373.667,210.534" class="er relationshipLine"></path><path style="stroke: gray; fill: none;" marker-start="url(#ONE_OR_MORE_START)" marker-end="url(#ONLY_ONE_END)" d="M323.487,270L323.487,278.333C323.487,286.667,323.487,303.333,323.487,320C323.487,336.667,323.487,353.333,323.487,361.667L323.487,370" class="er relationshipLine"></path><path style="stroke: gray; fill: none;" marker-start="url(#ONLY_ONE_START)" marker-end="url(#ZERO_OR_MORE_END)" d="M626.922,95L626.33,103.333C625.738,111.667,624.555,128.333,582.345,148.81C540.136,169.286,456.902,193.572,415.284,205.715L373.667,217.859" class="er relationshipLine"></path><path style="stroke: gray; fill: none;" marker-start="url(#ONE_OR_MORE_START)" marker-end="url(#ONLY_ONE_END)" d="M70.14,95L70.14,103.333C70.14,111.667,70.14,128.333,70.14,145C70.14,161.667,70.14,178.333,70.14,186.667L70.14,195" class="er relationshipLine"></path><path style="stroke: gray; fill: none;" marker-start="url(#ONE_OR_MORE_START)" marker-end="url(#ONE_OR_MORE_END)" d="M1006.79,95L1001.724,103.333C996.659,111.667,986.528,128.333,924.15,149.209C861.772,170.084,747.147,195.169,689.835,207.711L632.523,220.253" class="er relationshipLine"></path><path style="stroke: gray; fill: none;" marker-start="url(#ONLY_ONE_START)" marker-end="url(#ONE_OR_MORE_END)" d="M373.371,95L373.371,103.333C373.371,111.667,373.371,128.333,397.908,147.233C422.446,166.133,471.521,187.267,496.058,197.833L520.595,208.4" class="er relationshipLine"></path><path style="stroke: gray; fill: none;" marker-start="url(#ONE_OR_MORE_START)" marker-end="url(#ONLY_ONE_END)" d="M1072.372,95L1081.88,103.333C1091.389,111.667,1110.405,128.333,1129.745,145C1149.085,161.667,1168.748,178.333,1178.58,186.667L1188.411,195" class="er relationshipLine"></path><path style="stroke: gray; fill: none;" marker-start="url(#ONE_OR_MORE_START)" marker-end="url(#ONLY_ONE_END)" d="M1079.584,75.011L1112.891,86.676C1146.197,98.341,1212.809,121.67,1263.321,143.16C1313.832,164.649,1348.243,184.299,1365.448,194.124L1382.653,203.948" class="er relationshipLine"></path><path style="stroke: gray; fill: none;" marker-start="url(#ONLY_ONE_START)" marker-end="url(#ZERO_OR_MORE_END)" d="M679.584,87.3L695.72,96.917C711.855,106.533,744.126,125.767,786.282,146.425C828.439,167.082,880.481,189.165,906.502,200.206L932.523,211.247" class="er relationshipLine"></path><path style="stroke: gray; fill: none;" marker-start="url(#ONLY_ONE_START)" marker-end="url(#ZERO_OR_MORE_END)" d="M1079.584,70.006L1129.557,82.505C1179.53,95.004,1279.476,120.002,1271.661,145.244C1263.847,170.485,1148.272,195.97,1090.484,208.713L1032.697,221.455" class="er relationshipLine"></path><path style="stroke: gray; fill: none;" marker-start="url(#ONLY_ONE_START)" marker-end="url(#ZERO_OR_MORE_END)" d="M679.584,75.226L712.386,86.855C745.188,98.484,810.792,121.742,834.654,141.704C858.516,161.667,840.635,178.333,831.695,186.667L822.754,195" class="er relationshipLine"></path><path style="stroke: gray; fill: none;" marker-start="url(#ONLY_ONE_START)" marker-end="url(#ZERO_OR_ONE_END)" d="M782.523,270L782.523,278.333C782.523,286.667,782.523,303.333,782.523,320C782.523,336.667,782.523,353.333,782.523,361.667L782.523,370" class="er relationshipLine"></path><g transform="translate(579.58447265625,20 )" id="entity-MEMBER-0dec0ffe-bf75-5285-8a95-fadf08c8d17e"><rect height="75" width="100" y="0" x="0" class="er entityBox"></rect><text style="dominant-baseline: middle; text-anchor: middle; font-size: 12px;" transform="translate(50,37.5)" y="0" x="0" id="text-entity-MEMBER-0dec0ffe-bf75-5285-8a95-fadf08c8d17e" class="er entityLabel">MEMBER</text></g><g transform="translate(273.3076171875,195 )" id="entity-APPLICATION-78931c73-7328-5d57-b058-07575daa1430"><rect height="75" width="100.359375" y="0" x="0" class="er entityBox"></rect><text style="dominant-baseline: middle; text-anchor: middle; font-size: 12px;" transform="translate(50.1796875,37.5)" y="0" x="0" id="text-entity-APPLICATION-78931c73-7328-5d57-b058-07575daa1430" class="er entityLabel">APPLICATION</text></g><g transform="translate(257.43359375,370 )" id="entity-MEMBERSHIPTYPE-35818e61-d286-533d-aa26-8fd10f6b609c"><rect height="75" width="132.107421875" y="0" x="0" class="er entityBox"></rect><text style="dominant-baseline: middle; text-anchor: middle; font-size: 12px;" transform="translate(66.0537109375,37.5)" y="0" x="0" id="text-entity-MEMBERSHIPTYPE-35818e61-d286-533d-aa26-8fd10f6b609c" class="er entityLabel">MEMBERSHIP_TYPE</text></g><g transform="translate(20.1396484375,20 )" id="entity-EMPLOYEE-fcaaba41-0847-5740-91ce-65189257a19b"><rect height="75" width="100" y="0" x="0" class="er entityBox"></rect><text style="dominant-baseline: middle; text-anchor: middle; font-size: 12px;" transform="translate(50,37.5)" y="0" x="0" id="text-entity-EMPLOYEE-fcaaba41-0847-5740-91ce-65189257a19b" class="er entityLabel">EMPLOYEE</text></g><g transform="translate(20,195 )" id="entity-DEPARTMENT-c8b8b6c6-7645-582a-93ce-ec93aca41f07"><rect height="75" width="100.279296875" y="0" x="0" class="er entityBox"></rect><text style="dominant-baseline: middle; text-anchor: middle; font-size: 12px;" transform="translate(50.1396484375,37.5)" y="0" x="0" id="text-entity-DEPARTMENT-c8b8b6c6-7645-582a-93ce-ec93aca41f07" class="er entityLabel">DEPARTMENT</text></g><g transform="translate(979.58447265625,20 )" id="entity-BOOK-12b90bf2-7af7-5ded-a124-d6647c4b972e"><rect height="75" width="100" y="0" x="0" class="er entityBox"></rect><text style="dominant-baseline: middle; text-anchor: middle; font-size: 12px;" transform="translate(50,37.5)" y="0" x="0" id="text-entity-BOOK-12b90bf2-7af7-5ded-a124-d6647c4b972e" class="er entityLabel">BOOK</text></g><g transform="translate(520.59521484375,195 )" id="entity-BOOKAUTHOR-59a737d4-5aba-5ccd-9806-c9f1bf5350ac"><rect height="75" width="111.927734375" y="0" x="0" class="er entityBox"></rect><text style="dominant-baseline: middle; text-anchor: middle; font-size: 12px;" transform="translate(55.9638671875,37.5)" y="0" x="0" id="text-entity-BOOKAUTHOR-59a737d4-5aba-5ccd-9806-c9f1bf5350ac" class="er entityLabel">BOOK_AUTHOR</text></g><g transform="translate(323.37109375,20 )" id="entity-AUTHOR-c8b9204d-0c02-5422-8f8d-d29ca9ffce24"><rect height="75" width="100" y="0" x="0" class="er entityBox"></rect><text style="dominant-baseline: middle; text-anchor: middle; font-size: 12px;" transform="translate(50,37.5)" y="0" x="0" id="text-entity-AUTHOR-c8b9204d-0c02-5422-8f8d-d29ca9ffce24" class="er entityLabel">AUTHOR</text></g><g transform="translate(1182.6533203125,195 )" id="entity-PUBLISHER-03f9505a-3d0a-5077-97f7-4e736b472c12"><rect height="75" width="100" y="0" x="0" class="er entityBox"></rect><text style="dominant-baseline: middle; text-anchor: middle; font-size: 12px;" transform="translate(50,37.5)" y="0" x="0" id="text-entity-PUBLISHER-03f9505a-3d0a-5077-97f7-4e736b472c12" class="er entityLabel">PUBLISHER</text></g><g transform="translate(1382.6533203125,195 )" id="entity-CATEGORY-4496cc9e-da1f-5994-ab05-87aa395a773d"><rect height="75" width="100" y="0" x="0" class="er entityBox"></rect><text style="dominant-baseline: middle; text-anchor: middle; font-size: 12px;" transform="translate(50,37.5)" y="0" x="0" id="text-entity-CATEGORY-4496cc9e-da1f-5994-ab05-87aa395a773d" class="er entityLabel">CATEGORY</text></g><g transform="translate(932.52294921875,195 )" id="entity-RESERVATION-5109fe3f-ee2c-5a88-9977-a90a113e1f41"><rect height="75" width="100.173828125" y="0" x="0" class="er entityBox"></rect><text style="dominant-baseline: middle; text-anchor: middle; font-size: 12px;" transform="translate(50.0869140625,37.5)" y="0" x="0" id="text-entity-RESERVATION-5109fe3f-ee2c-5a88-9977-a90a113e1f41" class="er entityLabel">RESERVATION</text></g><g transform="translate(732.52294921875,195 )" id="entity-LOAN-d7d358ec-057c-581e-be1f-23c7d50b1556"><rect height="75" width="100" y="0" x="0" class="er entityBox"></rect><text style="dominant-baseline: middle; text-anchor: middle; font-size: 12px;" transform="translate(50,37.5)" y="0" x="0" id="text-entity-LOAN-d7d358ec-057c-581e-be1f-23c7d50b1556" class="er entityLabel">LOAN</text></g><g transform="translate(732.52294921875,370 )" id="entity-FINE-30b69713-0a4b-5882-81d6-69cc0491cc71"><rect height="75" width="100" y="0" x="0" class="er entityBox"></rect><text style="dominant-baseline: middle; text-anchor: middle; font-size: 12px;" transform="translate(50,37.5)" y="0" x="0" id="text-entity-FINE-30b69713-0a4b-5882-81d6-69cc0491cc71" class="er entityLabel">FINE</text></g><rect height="14" width="41.240234375" y="153.6607208251953" x="462.77789306640625" class="er relationshipLabelBox"></rect><text style="text-anchor: middle; dominant-baseline: middle; font-size: 12px;" y="160.6607208251953" x="483.39801025390625" id="rel13" class="er relationshipLabel">submits</text><rect height="14" width="17.861328125" y="313" x="314.55633544921875" class="er relationshipLabelBox"></rect><text style="text-anchor: middle; dominant-baseline: middle; font-size: 12px;" y="320" x="323.48699951171875" id="rel14" class="er relationshipLabel">has</text><rect height="14" width="31.853515625" y="168.05967712402344" x="498.786865234375" class="er relationshipLabelBox"></rect><text style="text-anchor: middle; dominant-baseline: middle; font-size: 12px;" y="175.05967712402344" x="514.713623046875" id="rel15" class="er relationshipLabel">refers</text><rect height="14" width="48.658203125" y="138" x="45.81089782714844" class="er relationshipLabelBox"></rect><text style="text-anchor: middle; dominant-baseline: middle; font-size: 12px;" y="145" x="70.13999938964844" id="rel16" class="er relationshipLabel">works_in</text><rect height="14" width="60.611328125" y="168.88427734375" x="798.1962280273438" class="er relationshipLabelBox"></rect><text style="text-anchor: middle; dominant-baseline: middle; font-size: 12px;" y="175.88427734375" x="828.5018920898438" id="rel17" class="er relationshipLabel">written_by</text><rect height="14" width="19.24609375" y="160.29925537109375" x="420.8674621582031" class="er relationshipLabelBox"></rect><text style="text-anchor: middle; dominant-baseline: middle; font-size: 12px;" y="167.29925537109375" x="430.4905090332031" id="rel18" class="er relationshipLabel">can</text><rect height="14" width="71.51171875" y="138.31932067871094" x="1094.3603515625" class="er relationshipLabelBox"></rect><text style="text-anchor: middle; dominant-baseline: middle; font-size: 12px;" y="145.31932067871094" x="1130.1162109375" id="rel19" class="er relationshipLabel">published_by</text><rect height="14" width="101.66015625" y="124.40852355957031" x="1183.815185546875" class="er relationshipLabelBox"></rect><text style="text-anchor: middle; dominant-baseline: middle; font-size: 12px;" y="131.4085235595703" x="1234.645263671875" id="rel20" class="er relationshipLabel">categorized_under</text><rect height="14" width="33.86328125" y="147.64012145996094" x="786.4583129882812" class="er relationshipLabelBox"></rect><text style="text-anchor: middle; dominant-baseline: middle; font-size: 12px;" y="154.64012145996094" x="803.3899536132812" id="rel21" class="er relationshipLabel">makes</text><rect height="14" width="46.697265625" y="152.2173309326172" x="1233.921630859375" class="er relationshipLabelBox"></rect><text style="text-anchor: middle; dominant-baseline: middle; font-size: 12px;" y="159.2173309326172" x="1257.270263671875" id="rel22" class="er relationshipLabel">reserved</text><rect height="14" width="52.806640625" y="109.67723083496094" x="763.34814453125" class="er relationshipLabelBox"></rect><text style="text-anchor: middle; dominant-baseline: middle; font-size: 12px;" y="116.67723083496094" x="789.75146484375" id="rel23" class="er relationshipLabel">takes_out</text><rect height="14" width="32.140625" y="313" x="766.4526977539062" class="er relationshipLabelBox"></rect><text style="text-anchor: middle; dominant-baseline: middle; font-size: 12px;" y="320" x="782.5230102539062" id="rel24" class="er relationshipLabel">incurs</text></svg>